<?xml version="1.0" standalone="no"?>
<!DOCTYPE svg PUBLIC "-//W3C//DTD SVG 20010904//EN"
 "http://www.w3.org/TR/2001/REC-SVG-20010904/DTD/svg10.dtd">
<svg version="1.0" xmlns="http://www.w3.org/2000/svg"
 width="128.000000pt" height="128.000000pt" viewBox="0 0 128.000000 128.000000"
 preserveAspectRatio="xMidYMid meet">
<metadata>
Created by potrace 1.14, written by Peter Selinger 2001-2017
</metadata>
<g transform="translate(0.000000,128.000000) scale(0.100000,-0.100000)"
fill="#000000" stroke="none">
<path d="M491 1195 c-40 -34 -66 -102 -52 -138 6 -15 15 -27 21 -27 24 0 7
-17 -40 -39 -27 -13 -67 -39 -89 -58 -40 -33 -40 -35 -25 -59 9 -13 14 -33 11
-44 -6 -24 11 -27 20 -4 5 13 7 13 14 2 10 -15 12 -44 3 -35 -7 7 -44 -35 -44
-50 0 -5 10 -17 21 -27 23 -19 37 -10 40 27 3 32 4 36 17 49 13 13 17 48 4 48
-4 0 -13 -5 -20 -12 -9 -9 -12 -7 -12 10 0 29 31 29 56 1 14 -16 16 -23 6 -26
-6 -3 -10 -9 -6 -14 3 -5 -2 -9 -10 -9 -23 0 -20 -9 11 -38 l27 -25 -23 -18
c-12 -10 -20 -23 -17 -28 3 -5 -6 -16 -19 -25 -14 -9 -35 -36 -47 -60 -14 -29
-26 -42 -37 -40 -25 6 -65 -30 -57 -51 3 -9 12 -15 19 -12 6 2 20 -6 30 -19
18 -24 18 -24 -5 -15 -13 5 -35 12 -49 15 -17 4 -31 16 -39 36 -7 16 -16 28
-20 25 -14 -8 -22 52 -11 74 13 24 14 71 2 71 -11 0 -21 -60 -21 -130 0 -120
50 -240 138 -332 120 -126 285 -179 450 -144 233 49 393 244 391 475 -1 108
-16 165 -46 169 -18 3 -23 -3 -29 -32 -7 -43 -13 -44 -44 -11 -20 22 -32 25
-89 25 -46 0 -62 -3 -51 -10 8 -5 25 -10 38 -10 29 0 28 -21 -2 -49 l-23 -22
-33 31 c-37 34 -56 39 -40 11 10 -20 63 -51 87 -51 17 0 17 -24 -2 -61 -12
-22 -13 -34 -5 -49 20 -37 -26 -160 -60 -160 -22 0 -70 74 -70 108 0 11 -11
30 -26 41 -14 11 -25 23 -25 28 1 4 -3 8 -9 7 -5 -1 -17 -2 -26 -2 -8 -1 -13
-6 -10 -11 3 -5 -12 -8 -34 -7 -21 0 -37 2 -35 5 2 2 -2 13 -10 25 -19 26 -19
45 1 85 13 26 14 38 5 57 -9 20 -8 26 5 31 9 3 14 13 11 24 -3 11 -1 22 5 25
16 10 26 48 16 61 -18 23 0 83 28 93 26 10 70 13 47 3 -18 -7 -16 -23 2 -23 8
0 15 4 15 9 0 5 16 19 35 32 19 13 35 28 35 33 0 5 7 14 17 21 46 34 -46 69
-174 68 l-71 -1 24 46 c30 57 30 77 -1 107 -31 32 -56 31 -94 0z m59 -46 c0
-28 -17 -56 -40 -69 -17 -9 -20 -8 -20 13 0 25 34 77 51 77 5 0 9 -9 9 -21z
m20 -221 c-1 -37 -7 -50 -45 -91 -47 -51 -49 -51 -60 15 -3 21 -13 42 -23 47
-15 9 -15 11 -2 24 8 8 25 18 38 22 19 5 22 3 22 -20 0 -22 4 -26 23 -23 14 2
22 10 23 23 2 38 4 45 14 45 6 0 10 -19 10 -42z m-146 -3 c-3 -8 -19 -21 -36
-29 -22 -11 -27 -12 -19 -2 6 7 8 15 5 18 -3 3 3 5 13 5 10 -1 17 4 16 11 -2
6 4 12 12 12 9 0 12 -6 9 -15z m172 -172 c-3 -4 -6 -1 -6 6 0 7 -4 9 -10 6 -6
-4 -7 1 -3 11 6 15 7 15 15 -1 6 -9 7 -19 4 -22z m-67 -113 l22 -31 -25 -54
c-17 -37 -31 -55 -43 -55 -15 0 -16 2 -3 10 13 9 12 12 -4 25 -26 20 -28 19
-62 -10 -15 -13 -30 -22 -33 -20 -10 11 -1 65 14 82 9 10 28 32 42 48 16 19
27 26 30 18 7 -18 33 -16 33 2 0 21 3 19 29 -15z m412 -213 c-13 -13 -15 11
-4 40 7 16 8 15 11 -6 2 -13 -1 -28 -7 -34z m-476 18 c28 -13 61 -25 74 -25
21 0 23 -4 18 -37 -5 -41 -21 -90 -43 -136 -17 -36 -17 -45 0 -79 14 -27 14
-27 -9 -12 -22 14 -52 66 -76 132 -7 20 -29 45 -56 63 -42 29 -43 32 -37 67 4
20 12 40 18 44 21 14 61 8 111 -17z m166 -132 c13 -16 12 -17 -3 -4 -10 7 -18
15 -18 17 0 8 8 3 21 -13z m-13 -70 c-4 -34 -28 -43 -28 -10 0 25 7 37 22 37
5 0 8 -12 6 -27z m170 18 c25 -15 -29 -21 -57 -6 l-26 14 35 0 c19 1 41 -3 48
-8z m-128 -31 c0 -5 -2 -10 -4 -10 -3 0 -8 5 -11 10 -3 6 -1 10 4 10 6 0 11
-4 11 -10z"/>
<path d="M905 1120 c-34 -13 -48 -37 -42 -72 8 -53 12 -65 24 -80 16 -18 35
-107 28 -126 -7 -19 12 -42 35 -42 14 0 18 12 23 57 5 43 12 62 31 80 32 30
34 71 5 123 -17 30 -66 72 -81 69 -1 0 -12 -4 -23 -9z m70 -112 c5 -17 3 -28
-3 -28 -26 0 -69 71 -56 92 9 14 51 -31 59 -64z"/>
<path d="M660 880 c-2 -3 -4 -24 -4 -47 -2 -44 12 -59 21 -23 3 11 9 20 14 20
5 0 9 5 9 10 0 6 -6 10 -14 10 -8 0 -17 8 -19 18 -3 9 -6 15 -7 12z"/>
<path d="M242 839 c-15 -24 -13 -32 7 -20 7 5 11 16 9 25 -2 14 -5 13 -16 -5z"/>
<path d="M624 695 c-25 -32 -18 -43 15 -25 15 8 27 8 42 0 20 -11 68 -6 101
11 20 11 13 40 -8 32 -8 -3 -21 0 -28 6 -11 9 -15 9 -18 -1 -4 -10 -8 -10 -19
-1 -24 20 -59 11 -85 -22z"/>
<path d="M210 602 c0 -12 19 -26 26 -19 2 2 -2 10 -11 17 -9 8 -15 8 -15 2z"/>
</g>
</svg>
